# xmcd
#
# Track frame offsets: 
#        150
#        26575
#        60625
#        87287
#        116566
#        139734
#        166695
#        186616
#        205164
#        232159
#        262208
#        290635
#        318848
#
# Disc length: 4415 seconds
#
# Revision: 0
# Processed by: cddbd v1.5.2PL0 Copyright (c) Steve Scherf et al.
# Submitted via: ExactAudioCopy v1.0b3
#
DISCID=c3113d0d
DTITLE=朱哲琴 - 琴音藏風
DYEAR=2000
DGENRE=Instrumental
TTITLE0=阿姐鼓
TTITLE1=天唱
TTITLE2=沒有陰影的家園
TTITLE3=央金瑪
TTITLE4=拉薩謠
TTITLE5=七只鼓
TTITLE6=一個真實的故事
TTITLE7=大海走了
TTITLE8=黃孩子
TTITLE9=吹簫人
TTITLE10=緣
TTITLE11=枯水季節
TTITLE12=雕塑女的眼淚
EXTD=
EXTT0=
EXTT1=
EXTT2=
EXTT3=
EXTT4=
EXTT5=
EXTT6=
EXTT7=
EXTT8=
EXTT9=
EXTT10=
EXTT11=
EXTT12=
PLAYORDER=
